<svg id="Capa_1" data-name="Capa 1" xmlns="http://www.w3.org/2000/svg" viewBox="0 0 2216.6 2030.2"><defs><style>.cls-1{fill:#2bbcee;}.cls-2{fill:#61c6ed;}.cls-3{fill:#8ad1f0;}.cls-4{fill:#5c944a;}.cls-5{fill:#a3c254;}.cls-6{fill:#4e885b;}.cls-7{fill:#4f875c;}.cls-8{fill:#8ba748;}.cls-9{fill:#7f4d2e;}.cls-10{fill:#945835;}.cls-11{fill:#a37458;}.cls-12{fill:#c1e5f5;}.cls-13{fill:#fff;}.cls-14{fill:#b57a4a;}.cls-15{fill:#ffce00;}.cls-16{fill:#f6b210;}.cls-17{fill:#9d6b40;}</style></defs><title>bg</title><rect class="cls-1" width="2216.6" height="2030.17"/><polygon class="cls-2" points="2216.6 1562.6 2216.6 467.5 2200.6 467.5 2200.6 556.1 2170.7 556.1 2170.7 467.5 2122.5 467.5 2122.5 525.6 2044.5 525.6 2044.5 614.1 1975.6 614.1 1975.6 467.5 1920.5 467.5 1920.5 553 1844.7 553 1844.7 467.5 1791.9 467.5 1791.9 546.9 1727.7 546.9 1727.7 467.5 1651.9 467.5 1651.9 504.2 1546.3 504.2 1546.3 467.5 1482 467.5 1482 574.4 1420 574.4 1420 467.5 1371.8 467.5 1371.8 525.6 1282.3 525.6 1282.3 595.8 1197.3 595.8 1197.3 498.1 1140 498.1 1140 550 1089.5 550 1089.5 488.9 1018.3 488.9 1018.3 562.2 912.7 562.2 912.7 467.5 827.8 467.5 827.8 513.3 756.6 513.3 756.6 467.5 692.3 467.5 692.3 510.3 595.9 510.3 595.9 586.6 533.9 586.6 533.9 467.5 478.8 467.5 478.8 531.7 400.7 531.7 400.7 467.5 361.7 467.5 361.7 507.2 242.3 507.2 242.3 605 187.3 605 187.3 467.5 104.6 467.5 104.6 522.5 0 522.5 0 1562.6 2216.6 1562.6"/><polygon class="cls-3" points="2216.6 2030.2 2216.6 935.1 2200.6 935.1 2200.6 1023.6 2170.7 1023.6 2170.7 935.1 2122.5 935.1 2122.5 993.1 2044.5 993.1 2044.5 1081.6 1975.6 1081.6 1975.6 935.1 1920.5 935.1 1920.5 1020.6 1844.7 1020.6 1844.7 935.1 1791.9 935.1 1791.9 1014.5 1727.7 1014.5 1727.7 935.1 1651.9 935.1 1651.9 971.7 1546.3 971.7 1546.3 935.1 1482 935.1 1482 1042 1420 1042 1420 935.1 1371.8 935.1 1371.8 993.1 1282.3 993.1 1282.3 1063.3 1197.3 1063.3 1197.3 965.6 1140 965.6 1140 1017.5 1089.5 1017.5 1089.5 956.4 1018.3 956.4 1018.3 1029.7 912.7 1029.7 912.7 935.1 827.8 935.1 827.8 980.9 756.6 980.9 756.6 935.1 692.3 935.1 692.3 977.8 595.9 977.8 595.9 1054.2 533.9 1054.2 533.9 935.1 478.8 935.1 478.8 999.2 400.7 999.2 400.7 935.1 361.7 935.1 361.7 974.8 242.3 974.8 242.3 1072.5 187.3 1072.5 187.3 935.1 104.6 935.1 104.6 990 0 990 0 2030.2 2216.6 2030.2"/><rect class="cls-4" x="487.7" y="1413.9" width="8.3" height="16.77"/><rect class="cls-4" x="512.4" y="1397.1" width="8.3" height="16.74"/><rect class="cls-5" x="281.2" y="1279.8" width="8.3" height="16.77"/><rect class="cls-4" x="82.9" y="1246.3" width="8.3" height="16.76"/><rect class="cls-4" x="545.5" y="1229.5" width="8.3" height="16.76"/><rect class="cls-6" x="504.2" y="1212.8" width="8.3" height="16.76"/><rect class="cls-5" x="132.5" y="1212.8" width="8.3" height="16.76"/><rect class="cls-4" x="107.7" y="1196" width="8.3" height="16.76"/><polygon class="cls-4" points="91.2 1330.1 116 1330.1 116 1346.8 99.4 1346.8 99.4 1397.1 107.7 1397.1 107.7 1413.9 124.2 1413.9 124.2 1430.6 182 1430.6 182 1431.2 454.6 1431.2 454.6 1430.6 487.7 1430.6 487.7 1413.9 421.6 1413.9 421.6 1397.1 405 1397.1 405 1380.3 396.8 1380.3 396.8 1363.6 388.5 1363.6 388.5 1397.1 372 1397.1 372 1413.9 305.9 1413.9 305.9 1397.1 289.4 1397.1 289.4 1380.3 281.2 1380.3 281.2 1363.6 198.5 1363.6 198.5 1346.8 182 1346.8 182 1330.1 165.5 1330.1 165.5 1279.8 140.7 1279.8 140.7 1263 116 1263 116 1246.3 107.7 1246.3 107.7 1229.5 99.4 1229.5 99.4 1246.3 91.2 1246.3 91.2 1263 82.9 1263 82.9 1313.3 91.2 1313.3 91.2 1330.1"/><polygon class="cls-4" points="322.5 1363.6 314.2 1363.6 314.2 1380.3 322.5 1380.3 330.7 1380.3 339 1380.3 339 1363.6 330.7 1363.6 322.5 1363.6"/><polygon class="cls-4" points="182 1279.8 182 1263 173.8 1263 165.5 1263 165.5 1279.8 173.8 1279.8 182 1279.8"/><polygon class="cls-4" points="388.5 1263 396.8 1263 405.1 1263 413.3 1263 421.6 1263 429.8 1263 438.1 1263 446.3 1263 454.6 1263 462.9 1263 462.9 1246.3 454.6 1246.3 446.3 1246.3 438.1 1246.3 429.8 1246.3 421.6 1246.3 413.3 1246.3 405.1 1246.3 396.8 1246.3 388.5 1246.3 380.3 1246.3 380.3 1263 388.5 1263"/><polygon class="cls-4" points="239.9 1212.8 248.1 1212.8 256.4 1212.8 264.6 1212.8 272.9 1212.8 281.2 1212.8 289.4 1212.8 297.7 1212.8 305.9 1212.8 314.2 1212.8 322.5 1212.8 322.5 1196 314.2 1196 305.9 1196 297.7 1196 289.4 1196 281.2 1196 272.9 1196 264.6 1196 256.4 1196 248.1 1196 239.9 1196 231.6 1196 231.6 1212.8 239.9 1212.8"/><polygon class="cls-5" points="471.1 1330.1 462.9 1330.1 454.6 1330.1 454.6 1346.8 454.6 1363.6 462.9 1363.6 471.1 1363.6 479.4 1363.6 479.4 1346.8 479.4 1330.1 471.1 1330.1"/><polygon class="cls-5" points="206.8 1330.1 198.5 1330.1 198.5 1346.8 198.5 1363.6 206.8 1363.6 215.1 1363.6 223.3 1363.6 223.3 1346.8 223.3 1330.1 215.1 1330.1 206.8 1330.1"/><polygon class="cls-5" points="289.4 1263 281.2 1263 281.2 1279.8 289.4 1279.8 289.4 1296.6 297.7 1296.6 305.9 1296.6 305.9 1279.8 305.9 1263 297.7 1263 289.4 1263"/><polygon class="cls-5" points="380.3 1162.5 372 1162.5 372 1179.2 380.3 1179.2 388.5 1179.2 396.8 1179.2 396.8 1162.5 388.5 1162.5 380.3 1162.5"/><rect class="cls-4" x="124.2" y="1162.5" width="8.3" height="16.76"/><rect class="cls-5" x="405.1" y="1129" width="8.3" height="16.76"/><rect class="cls-7" x="157.3" y="1129" width="8.3" height="16.76"/><rect class="cls-4" x="190.3" y="1112.2" width="8.3" height="16.75"/><path class="cls-5" d="M537.2,1246.3v-16.8h-33v-67h-8.3v-16.8H479.4V1129H413.3v16.8h-8.3V1129h8.3v-16.8h-8.3v-16.8H388.5v-16.7H314.2v16.7h-8.3v-16.7H256.4v16.7H231.6v16.8h-8.3v33.5H206.8V1129H165.5v16.8H140.7v16.8h-8.3v16.8h-8.3v33.5h16.5v16.8h-33v16.8H116V1263h24.8v16.7h24.8V1263H182v16.7H165.5v50.3H182v16.7h16.5v-16.7h24.8v33.5h57.8v16.7h8.3v16.8h16.5v16.7H372v-16.7h16.5v-33.5h8.3v16.7h8.3v16.8h16.5v16.7h90.9v-16.7H529v-50.3h-8.3v-16.7H529v-16.8h16.5v-67Zm-156.9,0h82.6V1263H380.3Zm-99.1,33.5V1263h24.8v33.5H281.2Zm-33-83.8h74.3v16.8H231.6V1196h16.5Zm206.5,150.8v-16.7h24.8v33.5H454.6Zm-57.8-167.6H372v-16.8h24.8Zm-82.6,184.4H339v16.7H314.2Z" transform="translate(0)"/><polygon class="cls-4" points="562 1296.6 562 1279.8 562 1263 562 1246.3 553.7 1246.3 545.5 1246.3 545.5 1263 545.5 1263 545.5 1279.8 545.5 1296.6 553.7 1296.6 553.7 1279.8 553.7 1263 553.7 1263 553.7 1279.8 553.7 1296.6 553.7 1296.6 553.7 1296.6 545.5 1296.6 545.5 1313.3 553.7 1313.3 553.7 1313.3 562 1313.3 562 1296.6 562 1296.6"/><polygon class="cls-4" points="380.3 1061.9 380.3 1061.9 372 1061.9 363.8 1061.9 355.5 1061.9 347.2 1061.9 339 1061.9 330.7 1061.9 322.5 1061.9 314.2 1061.9 314.2 1078.7 322.5 1078.7 330.7 1078.7 339 1078.7 347.2 1078.7 355.5 1078.7 363.8 1078.7 372 1078.7 380.3 1078.7 380.3 1078.7 388.5 1078.7 388.5 1061.9 380.3 1061.9"/><polygon class="cls-4" points="124.2 1430.6 124.2 1431.2 173.8 1431.2 173.8 1430.6 132.5 1430.6 132.5 1430.6 124.2 1430.6 124.2 1413.9 107.7 1413.9 107.7 1430.6 124.2 1430.6"/><rect class="cls-4" x="454.6" y="1430.6" width="16.5" height="0.57"/><polygon class="cls-4" points="495.9 1413.9 495.9 1430.6 504.2 1430.6 512.4 1430.6 512.4 1413.9 504.2 1413.9 495.9 1413.9"/><polygon class="cls-4" points="99.4 1397.1 99.4 1380.3 99.4 1363.6 99.4 1346.8 107.7 1346.8 116 1346.8 116 1330.1 107.7 1330.1 99.4 1330.1 91.2 1330.1 91.2 1346.8 82.9 1346.8 82.9 1363.6 82.9 1380.3 82.9 1397.1 91.2 1397.1 91.2 1413.9 99.4 1413.9 107.7 1413.9 107.7 1397.1 99.4 1397.1"/><polygon class="cls-4" points="529 1313.3 529 1330.1 520.7 1330.1 520.7 1346.8 529 1346.8 529 1363.6 529 1380.3 529 1397.1 520.7 1397.1 520.7 1413.9 529 1413.9 537.2 1413.9 537.2 1397.1 545.5 1397.1 545.5 1380.3 545.5 1363.6 545.5 1346.8 537.2 1346.8 537.2 1330.1 545.5 1330.1 545.5 1313.3 537.2 1313.3 529 1313.3"/><polygon class="cls-4" points="82.9 1313.3 82.9 1296.6 82.9 1279.8 82.9 1263 82.9 1246.3 74.7 1246.3 74.7 1263 66.4 1263 66.4 1279.8 66.4 1296.6 66.4 1313.3 74.7 1313.3 74.7 1330.1 82.9 1330.1 91.2 1330.1 91.2 1313.3 82.9 1313.3"/><rect class="cls-4" x="537.2" y="1229.5" width="8.3" height="16.76"/><polygon class="cls-4" points="99.4 1246.3 99.4 1229.5 107.7 1229.5 107.7 1229.5 116 1229.5 124.2 1229.5 132.5 1229.5 132.5 1212.8 124.2 1212.8 124.2 1196 124.2 1179.2 124.2 1162.5 116 1162.5 116 1179.2 107.7 1179.2 107.7 1196 116 1196 116 1212.8 107.7 1212.8 107.7 1212.8 99.4 1212.8 99.4 1229.5 91.2 1229.5 82.9 1229.5 82.9 1246.3 91.2 1246.3 99.4 1246.3"/><polygon class="cls-4" points="529 1212.8 520.7 1212.8 512.4 1212.8 512.4 1229.5 520.7 1229.5 529 1229.5 537.2 1229.5 537.2 1212.8 529 1212.8"/><polygon class="cls-4" points="520.7 1196 520.7 1179.2 512.4 1179.2 512.4 1162.5 512.4 1145.7 504.2 1145.7 504.2 1129 495.9 1129 487.7 1129 479.4 1129 479.4 1145.7 487.7 1145.7 495.9 1145.7 495.9 1162.5 504.2 1162.5 504.2 1179.2 504.2 1196 504.2 1212.8 512.4 1212.8 512.4 1196 520.7 1196"/><polygon class="cls-4" points="140.7 1162.5 140.7 1145.7 132.5 1145.7 124.2 1145.7 124.2 1162.5 132.5 1162.5 140.7 1162.5"/><polygon class="cls-4" points="157.3 1145.7 157.3 1129 149 1129 140.7 1129 140.7 1145.7 149 1145.7 157.3 1145.7"/><polygon class="cls-4" points="471.1 1112.2 462.9 1112.2 454.6 1112.2 446.3 1112.2 438.1 1112.2 429.8 1112.2 421.6 1112.2 421.6 1095.4 413.3 1095.4 413.3 1078.7 405.1 1078.7 396.8 1078.7 396.8 1078.7 388.5 1078.7 388.5 1095.4 396.8 1095.4 396.8 1095.4 405.1 1095.4 405.1 1112.2 413.3 1112.2 413.3 1129 421.6 1129 429.8 1129 438.1 1129 446.3 1129 454.6 1129 462.9 1129 471.1 1129 479.4 1129 479.4 1112.2 471.1 1112.2"/><polygon class="cls-4" points="173.8 1112.2 165.5 1112.2 165.5 1129 173.8 1129 182 1129 190.3 1129 190.3 1112.2 182 1112.2 173.8 1112.2"/><rect class="cls-4" x="305.9" y="1078.7" width="8.3" height="16.75"/><polygon class="cls-4" points="239.9 1078.7 231.6 1078.7 223.3 1078.7 223.3 1095.4 215.1 1095.4 215.1 1112.2 206.8 1112.2 206.8 1129 206.8 1145.7 215.1 1145.7 223.3 1145.7 223.3 1129 223.3 1112.2 231.6 1112.2 231.6 1095.4 239.9 1095.4 248.1 1095.4 256.4 1095.4 256.4 1078.7 248.1 1078.7 239.9 1078.7"/><polygon class="cls-4" points="281.2 1078.7 289.4 1078.7 297.7 1078.7 297.7 1061.9 289.4 1061.9 281.2 1061.9 272.9 1061.9 264.6 1061.9 264.6 1078.7 272.9 1078.7 281.2 1078.7"/><rect class="cls-4" x="1004.7" y="1413.9" width="8.3" height="16.77"/><rect class="cls-4" x="1029.5" y="1397.1" width="8.3" height="16.74"/><rect class="cls-5" x="798.2" y="1279.8" width="8.3" height="16.77"/><rect class="cls-4" x="600" y="1246.3" width="8.3" height="16.76"/><rect class="cls-4" x="1062.5" y="1229.5" width="8.3" height="16.76"/><rect class="cls-6" x="1021.2" y="1212.8" width="8.3" height="16.76"/><rect class="cls-5" x="649.5" y="1212.8" width="8.3" height="16.76"/><rect class="cls-4" x="624.8" y="1196" width="8.3" height="16.76"/><polygon class="cls-4" points="608.2 1330.1 633 1330.1 633 1346.8 616.5 1346.8 616.5 1397.1 624.8 1397.1 624.8 1413.9 641.3 1413.9 641.3 1430.6 699.1 1430.6 699.1 1431.2 971.7 1431.2 971.7 1430.6 1004.7 1430.6 1004.7 1413.9 938.6 1413.9 938.6 1397.1 922.1 1397.1 922.1 1380.3 913.9 1380.3 913.9 1363.6 905.6 1363.6 905.6 1397.1 889.1 1397.1 889.1 1413.9 823 1413.9 823 1397.1 806.5 1397.1 806.5 1380.3 798.2 1380.3 798.2 1363.6 715.6 1363.6 715.6 1346.8 699.1 1346.8 699.1 1330.1 682.6 1330.1 682.6 1279.8 657.8 1279.8 657.8 1263 633 1263 633 1246.3 624.8 1246.3 624.8 1229.5 616.5 1229.5 616.5 1246.3 608.2 1246.3 608.2 1263 600 1263 600 1313.3 608.2 1313.3 608.2 1330.1"/><polygon class="cls-4" points="839.5 1363.6 831.3 1363.6 831.3 1380.3 839.5 1380.3 847.8 1380.3 856 1380.3 856 1363.6 847.8 1363.6 839.5 1363.6"/><polygon class="cls-4" points="699.1 1279.8 699.1 1263 690.8 1263 682.6 1263 682.6 1279.8 690.8 1279.8 699.1 1279.8"/><polygon class="cls-4" points="905.6 1263 913.9 1263 922.1 1263 930.4 1263 938.6 1263 946.9 1263 955.2 1263 963.4 1263 971.7 1263 979.9 1263 979.9 1246.3 971.7 1246.3 963.4 1246.3 955.2 1246.3 946.9 1246.3 938.6 1246.3 930.4 1246.3 922.1 1246.3 913.9 1246.3 905.6 1246.3 897.3 1246.3 897.3 1263 905.6 1263"/><polygon class="cls-4" points="756.9 1212.8 765.2 1212.8 773.4 1212.8 781.7 1212.8 790 1212.8 798.2 1212.8 806.5 1212.8 814.7 1212.8 823 1212.8 831.3 1212.8 839.5 1212.8 839.5 1196 831.3 1196 823 1196 814.7 1196 806.5 1196 798.2 1196 790 1196 781.7 1196 773.4 1196 765.2 1196 756.9 1196 748.6 1196 748.6 1212.8 756.9 1212.8"/><polygon class="cls-5" points="988.2 1330.1 979.9 1330.1 971.7 1330.1 971.7 1346.8 971.7 1363.6 979.9 1363.6 988.2 1363.6 996.4 1363.6 996.4 1346.8 996.4 1330.1 988.2 1330.1"/><polygon class="cls-5" points="723.9 1330.1 715.6 1330.1 715.6 1346.8 715.6 1363.6 723.9 1363.6 732.1 1363.6 740.4 1363.6 740.4 1346.8 740.4 1330.1 732.1 1330.1 723.9 1330.1"/><polygon class="cls-5" points="806.5 1263 798.2 1263 798.2 1279.8 806.5 1279.8 806.5 1296.6 814.7 1296.6 823 1296.6 823 1279.8 823 1263 814.7 1263 806.5 1263"/><polygon class="cls-5" points="897.3 1162.5 889.1 1162.5 889.1 1179.2 897.3 1179.2 905.6 1179.2 913.9 1179.2 913.9 1162.5 905.6 1162.5 897.3 1162.5"/><rect class="cls-4" x="641.3" y="1162.5" width="8.3" height="16.76"/><rect class="cls-5" x="922.1" y="1129" width="8.3" height="16.76"/><rect class="cls-7" x="674.3" y="1129" width="8.3" height="16.76"/><rect class="cls-4" x="707.4" y="1112.2" width="8.3" height="16.75"/><path class="cls-5" d="M1054.3,1246.3v-16.8h-33v-67H1013v-16.8H996.4V1129H930.4v16.8h-8.3V1129h8.3v-16.8h-8.3v-16.8H905.6v-16.7H831.3v16.7H823v-16.7H773.4v16.7H748.6v16.8h-8.3v33.5H723.9V1129H682.6v16.8H657.8v16.8h-8.3v16.8h-8.3v33.5h16.5v16.8h-33v16.8H633V1263h24.8v16.7h24.8V1263h16.5v16.7H682.6v50.3h16.5v16.7h16.5v-16.7h24.8v33.5h57.8v16.7h8.3v16.8H823v16.7h66.1v-16.7h16.5v-33.5h8.3v16.7h8.3v16.8h16.5v16.7h90.9v-16.7H1046v-50.3h-8.3v-16.7h8.3v-16.8h16.5v-67Zm-156.9,0h82.6V1263H897.3Zm-99.1,33.5V1263H823v33.5H798.2Zm-33-83.8h74.3v16.8H748.6V1196h16.5Zm206.5,150.8v-16.7h24.8v33.5H971.7Zm-57.8-167.6H889.1v-16.8h24.8Zm-82.6,184.4H856v16.7H831.3Z" transform="translate(0)"/><polygon class="cls-4" points="1079.1 1296.6 1079.1 1279.8 1079.1 1263 1079.1 1246.3 1070.8 1246.3 1062.5 1246.3 1062.5 1263 1062.5 1263 1062.5 1279.8 1062.5 1296.6 1070.8 1296.6 1070.8 1279.8 1070.8 1263 1070.8 1263 1070.8 1279.8 1070.8 1296.6 1070.8 1296.6 1070.8 1296.6 1062.5 1296.6 1062.5 1313.3 1070.8 1313.3 1070.8 1313.3 1079.1 1313.3 1079.1 1296.6 1079.1 1296.6"/><polygon class="cls-4" points="897.3 1061.9 897.3 1061.9 889.1 1061.9 880.8 1061.9 872.6 1061.9 864.3 1061.9 856 1061.9 847.8 1061.9 839.5 1061.9 831.3 1061.9 831.3 1078.7 839.5 1078.7 847.8 1078.7 856 1078.7 864.3 1078.7 872.6 1078.7 880.8 1078.7 889.1 1078.7 897.3 1078.7 897.3 1078.7 905.6 1078.7 905.6 1061.9 897.3 1061.9"/><polygon class="cls-4" points="641.3 1430.6 641.3 1431.2 690.8 1431.2 690.8 1430.6 649.5 1430.6 649.5 1430.6 641.3 1430.6 641.3 1413.9 624.8 1413.9 624.8 1430.6 641.3 1430.6"/><rect class="cls-4" x="971.7" y="1430.6" width="16.5" height="0.57"/><polygon class="cls-4" points="1013 1413.9 1013 1430.6 1021.2 1430.6 1029.5 1430.6 1029.5 1413.9 1021.2 1413.9 1013 1413.9"/><polygon class="cls-4" points="616.5 1397.1 616.5 1380.3 616.5 1363.6 616.5 1346.8 624.8 1346.8 633 1346.8 633 1330.1 624.8 1330.1 616.5 1330.1 608.2 1330.1 608.2 1346.8 600 1346.8 600 1363.6 600 1380.3 600 1397.1 608.2 1397.1 608.2 1413.9 616.5 1413.9 624.8 1413.9 624.8 1397.1 616.5 1397.1"/><polygon class="cls-4" points="1046 1313.3 1046 1330.1 1037.7 1330.1 1037.7 1346.8 1046 1346.8 1046 1363.6 1046 1380.3 1046 1397.1 1037.7 1397.1 1037.7 1413.9 1046 1413.9 1054.3 1413.9 1054.3 1397.1 1062.5 1397.1 1062.5 1380.3 1062.5 1363.6 1062.5 1346.8 1054.3 1346.8 1054.3 1330.1 1062.5 1330.1 1062.5 1313.3 1054.3 1313.3 1046 1313.3"/><polygon class="cls-4" points="600 1313.3 600 1296.6 600 1279.8 600 1263 600 1246.3 591.7 1246.3 591.7 1263 583.5 1263 583.5 1279.8 583.5 1296.6 583.5 1313.3 591.7 1313.3 591.7 1330.1 600 1330.1 608.2 1330.1 608.2 1313.3 600 1313.3"/><rect class="cls-4" x="1054.3" y="1229.5" width="8.3" height="16.76"/><polygon class="cls-4" points="616.5 1246.3 616.5 1229.5 624.8 1229.5 624.8 1229.5 633 1229.5 641.3 1229.5 649.5 1229.5 649.5 1212.8 641.3 1212.8 641.3 1196 641.3 1179.2 641.3 1162.5 633 1162.5 633 1179.2 624.8 1179.2 624.8 1196 633 1196 633 1212.8 624.8 1212.8 624.8 1212.8 616.5 1212.8 616.5 1229.5 608.2 1229.5 600 1229.5 600 1246.3 608.2 1246.3 616.5 1246.3"/><polygon class="cls-4" points="1046 1212.8 1037.7 1212.8 1029.5 1212.8 1029.5 1229.5 1037.7 1229.5 1046 1229.5 1054.3 1229.5 1054.3 1212.8 1046 1212.8"/><polygon class="cls-4" points="1037.7 1196 1037.7 1179.2 1029.5 1179.2 1029.5 1162.5 1029.5 1145.7 1021.2 1145.7 1021.2 1129 1013 1129 1004.7 1129 996.4 1129 996.4 1145.7 1004.7 1145.7 1013 1145.7 1013 1162.5 1021.2 1162.5 1021.2 1179.2 1021.2 1196 1021.2 1212.8 1029.5 1212.8 1029.5 1196 1037.7 1196"/><polygon class="cls-4" points="657.8 1162.5 657.8 1145.7 649.5 1145.7 641.3 1145.7 641.3 1162.5 649.5 1162.5 657.8 1162.5"/><polygon class="cls-4" points="674.3 1145.7 674.3 1129 666.1 1129 657.8 1129 657.8 1145.7 666.1 1145.7 674.3 1145.7"/><polygon class="cls-4" points="988.2 1112.2 979.9 1112.2 971.7 1112.2 963.4 1112.2 955.2 1112.2 946.9 1112.2 938.6 1112.2 938.6 1095.4 930.4 1095.4 930.4 1078.7 922.1 1078.7 913.9 1078.7 913.9 1078.7 905.6 1078.7 905.6 1095.4 913.9 1095.4 913.9 1095.4 922.1 1095.4 922.1 1112.2 930.4 1112.2 930.4 1129 938.6 1129 946.9 1129 955.2 1129 963.4 1129 971.7 1129 979.9 1129 988.2 1129 996.4 1129 996.4 1112.2 988.2 1112.2"/><polygon class="cls-4" points="690.8 1112.2 682.6 1112.2 682.6 1129 690.8 1129 699.1 1129 707.4 1129 707.4 1112.2 699.1 1112.2 690.8 1112.2"/><rect class="cls-4" x="823" y="1078.7" width="8.3" height="16.75"/><polygon class="cls-4" points="756.9 1078.7 748.6 1078.7 740.4 1078.7 740.4 1095.4 732.1 1095.4 732.1 1112.2 723.9 1112.2 723.9 1129 723.9 1145.7 732.1 1145.7 740.4 1145.7 740.4 1129 740.4 1112.2 748.6 1112.2 748.6 1095.4 756.9 1095.4 765.2 1095.4 773.4 1095.4 773.4 1078.7 765.2 1078.7 756.9 1078.7"/><polygon class="cls-4" points="798.2 1078.7 806.5 1078.7 814.7 1078.7 814.7 1061.9 806.5 1061.9 798.2 1061.9 790 1061.9 781.7 1061.9 781.7 1078.7 790 1078.7 798.2 1078.7"/><rect class="cls-4" x="1543.8" y="1413.9" width="8.3" height="16.77"/><rect class="cls-4" x="1568.6" y="1397.1" width="8.3" height="16.74"/><rect class="cls-5" x="1337.3" y="1279.8" width="8.3" height="16.77"/><rect class="cls-4" x="1139.1" y="1246.3" width="8.3" height="16.76"/><rect class="cls-4" x="1601.7" y="1229.5" width="8.3" height="16.76"/><rect class="cls-6" x="1560.4" y="1212.8" width="8.3" height="16.76"/><rect class="cls-5" x="1188.7" y="1212.8" width="8.3" height="16.76"/><rect class="cls-4" x="1163.9" y="1196" width="8.3" height="16.76"/><polygon class="cls-4" points="1147.3 1330.1 1172.1 1330.1 1172.1 1346.8 1155.6 1346.8 1155.6 1397.1 1163.9 1397.1 1163.9 1413.9 1180.4 1413.9 1180.4 1430.6 1238.2 1430.6 1238.2 1431.2 1510.8 1431.2 1510.8 1430.6 1543.8 1430.6 1543.8 1413.9 1477.8 1413.9 1477.8 1397.1 1461.2 1397.1 1461.2 1380.3 1453 1380.3 1453 1363.6 1444.7 1363.6 1444.7 1397.1 1428.2 1397.1 1428.2 1413.9 1362.1 1413.9 1362.1 1397.1 1345.6 1397.1 1345.6 1380.3 1337.3 1380.3 1337.3 1363.6 1254.7 1363.6 1254.7 1346.8 1238.2 1346.8 1238.2 1330.1 1221.7 1330.1 1221.7 1279.8 1196.9 1279.8 1196.9 1263 1172.1 1263 1172.1 1246.3 1163.9 1246.3 1163.9 1229.5 1155.6 1229.5 1155.6 1246.3 1147.3 1246.3 1147.3 1263 1139.1 1263 1139.1 1313.3 1147.3 1313.3 1147.3 1330.1"/><polygon class="cls-4" points="1378.6 1363.6 1370.4 1363.6 1370.4 1380.3 1378.6 1380.3 1386.9 1380.3 1395.2 1380.3 1395.2 1363.6 1386.9 1363.6 1378.6 1363.6"/><polygon class="cls-4" points="1238.2 1279.8 1238.2 1263 1230 1263 1221.7 1263 1221.7 1279.8 1230 1279.8 1238.2 1279.8"/><polygon class="cls-4" points="1444.7 1263 1453 1263 1461.2 1263 1469.5 1263 1477.8 1263 1486 1263 1494.3 1263 1502.5 1263 1510.8 1263 1519.1 1263 1519.1 1246.3 1510.8 1246.3 1502.5 1246.3 1494.3 1246.3 1486 1246.3 1477.8 1246.3 1469.5 1246.3 1461.2 1246.3 1453 1246.3 1444.7 1246.3 1436.5 1246.3 1436.5 1263 1444.7 1263"/><polygon class="cls-4" points="1296 1212.8 1304.3 1212.8 1312.6 1212.8 1320.8 1212.8 1329.1 1212.8 1337.3 1212.8 1345.6 1212.8 1353.9 1212.8 1362.1 1212.8 1370.4 1212.8 1378.6 1212.8 1378.6 1196 1370.4 1196 1362.1 1196 1353.9 1196 1345.6 1196 1337.3 1196 1329.1 1196 1320.8 1196 1312.6 1196 1304.3 1196 1296 1196 1287.8 1196 1287.8 1212.8 1296 1212.8"/><polygon class="cls-5" points="1527.3 1330.1 1519.1 1330.1 1510.8 1330.1 1510.8 1346.8 1510.8 1363.6 1519.1 1363.6 1527.3 1363.6 1535.6 1363.6 1535.6 1346.8 1535.6 1330.1 1527.3 1330.1"/><polygon class="cls-5" points="1263 1330.1 1254.7 1330.1 1254.7 1346.8 1254.7 1363.6 1263 1363.6 1271.3 1363.6 1279.5 1363.6 1279.5 1346.8 1279.5 1330.1 1271.3 1330.1 1263 1330.1"/><polygon class="cls-5" points="1345.6 1263 1337.3 1263 1337.3 1279.8 1345.6 1279.8 1345.6 1296.6 1353.9 1296.6 1362.1 1296.6 1362.1 1279.8 1362.1 1263 1353.9 1263 1345.6 1263"/><polygon class="cls-5" points="1436.5 1162.5 1428.2 1162.5 1428.2 1179.2 1436.5 1179.2 1444.7 1179.2 1453 1179.2 1453 1162.5 1444.7 1162.5 1436.5 1162.5"/><rect class="cls-4" x="1180.4" y="1162.5" width="8.3" height="16.76"/><rect class="cls-5" x="1461.2" y="1129" width="8.3" height="16.76"/><rect class="cls-7" x="1213.4" y="1129" width="8.3" height="16.76"/><rect class="cls-4" x="1246.5" y="1112.2" width="8.3" height="16.75"/><path class="cls-5" d="M1593.4,1246.3v-16.8h-33v-67h-8.3v-16.8h-16.5V1129h-66.1v16.8h-8.3V1129h8.3v-16.8h-8.3v-16.8h-16.5v-16.7h-74.3v16.7h-8.3v-16.7h-49.6v16.7h-24.8v16.8h-8.3v33.5H1263V1129h-41.3v16.8h-24.8v16.8h-8.3v16.8h-8.3v33.5h16.5v16.8h-33v16.8h8.3V1263h24.8v16.7h24.8V1263h16.5v16.7h-16.5v50.3h16.5v16.7h16.5v-16.7h24.8v33.5h57.8v16.7h8.3v16.8h16.5v16.7h66.1v-16.7h16.5v-33.5h8.3v16.7h8.3v16.8h16.5v16.7h90.9v-16.7h16.5v-50.3h-8.3v-16.7h8.3v-16.8h16.5v-67Zm-156.9,0h82.6V1263h-82.6Zm-99.1,33.5V1263h24.8v33.5h-24.8Zm-33-83.8h74.3v16.8h-90.9V1196h16.5Zm206.5,150.8v-16.7h24.8v33.5h-24.8ZM1453,1179.2h-24.8v-16.8H1453Zm-82.6,184.4h24.8v16.7h-24.8Z" transform="translate(0)"/><polygon class="cls-4" points="1618.2 1296.6 1618.2 1279.8 1618.2 1263 1618.2 1246.3 1609.9 1246.3 1601.7 1246.3 1601.7 1263 1601.7 1263 1601.7 1279.8 1601.7 1296.6 1609.9 1296.6 1609.9 1279.8 1609.9 1263 1609.9 1263 1609.9 1279.8 1609.9 1296.6 1609.9 1296.6 1609.9 1296.6 1601.7 1296.6 1601.7 1313.3 1609.9 1313.3 1609.9 1313.3 1618.2 1313.3 1618.2 1296.6 1618.2 1296.6"/><polygon class="cls-4" points="1436.5 1061.9 1436.5 1061.9 1428.2 1061.9 1419.9 1061.9 1411.7 1061.9 1403.4 1061.9 1395.2 1061.9 1386.9 1061.9 1378.6 1061.9 1370.4 1061.9 1370.4 1078.7 1378.6 1078.7 1386.9 1078.7 1395.2 1078.7 1403.4 1078.7 1411.7 1078.7 1419.9 1078.7 1428.2 1078.7 1436.5 1078.7 1436.5 1078.7 1444.7 1078.7 1444.7 1061.9 1436.5 1061.9"/><polygon class="cls-4" points="1180.4 1430.6 1180.4 1431.2 1230 1431.2 1230 1430.6 1188.7 1430.6 1188.7 1430.6 1180.4 1430.6 1180.4 1413.9 1163.9 1413.9 1163.9 1430.6 1180.4 1430.6"/><rect class="cls-4" x="1510.8" y="1430.6" width="16.5" height="0.57"/><polygon class="cls-4" points="1552.1 1413.9 1552.1 1430.6 1560.4 1430.6 1568.6 1430.6 1568.6 1413.9 1560.4 1413.9 1552.1 1413.9"/><polygon class="cls-4" points="1155.6 1397.1 1155.6 1380.3 1155.6 1363.6 1155.6 1346.8 1163.9 1346.8 1172.1 1346.8 1172.1 1330.1 1163.9 1330.1 1155.6 1330.1 1147.3 1330.1 1147.3 1346.8 1139.1 1346.8 1139.1 1363.6 1139.1 1380.3 1139.1 1397.1 1147.3 1397.1 1147.3 1413.9 1155.6 1413.9 1163.9 1413.9 1163.9 1397.1 1155.6 1397.1"/><polygon class="cls-4" points="1585.1 1313.3 1585.1 1330.1 1576.9 1330.1 1576.9 1346.8 1585.1 1346.8 1585.1 1363.6 1585.1 1380.3 1585.1 1397.1 1576.9 1397.1 1576.9 1413.9 1585.1 1413.9 1593.4 1413.9 1593.4 1397.1 1601.7 1397.1 1601.7 1380.3 1601.7 1363.6 1601.7 1346.8 1593.4 1346.8 1593.4 1330.1 1601.7 1330.1 1601.7 1313.3 1593.4 1313.3 1585.1 1313.3"/><polygon class="cls-4" points="1139.1 1313.3 1139.1 1296.6 1139.1 1279.8 1139.1 1263 1139.1 1246.3 1130.8 1246.3 1130.8 1263 1122.6 1263 1122.6 1279.8 1122.6 1296.6 1122.6 1313.3 1130.8 1313.3 1130.8 1330.1 1139.1 1330.1 1147.3 1330.1 1147.3 1313.3 1139.1 1313.3"/><rect class="cls-4" x="1593.4" y="1229.5" width="8.3" height="16.76"/><polygon class="cls-4" points="1155.6 1246.3 1155.6 1229.5 1163.9 1229.5 1163.9 1229.5 1172.1 1229.5 1180.4 1229.5 1188.7 1229.5 1188.7 1212.8 1180.4 1212.8 1180.4 1196 1180.4 1179.2 1180.4 1162.5 1172.1 1162.5 1172.1 1179.2 1163.9 1179.2 1163.9 1196 1172.1 1196 1172.1 1212.8 1163.9 1212.8 1163.9 1212.8 1155.6 1212.8 1155.6 1229.5 1147.3 1229.5 1139.1 1229.5 1139.1 1246.3 1147.3 1246.3 1155.6 1246.3"/><polygon class="cls-4" points="1585.1 1212.8 1576.9 1212.8 1568.6 1212.8 1568.6 1229.5 1576.9 1229.5 1585.1 1229.5 1593.4 1229.5 1593.4 1212.8 1585.1 1212.8"/><polygon class="cls-4" points="1576.9 1196 1576.9 1179.2 1568.6 1179.2 1568.6 1162.5 1568.6 1145.7 1560.4 1145.7 1560.4 1129 1552.1 1129 1543.8 1129 1535.6 1129 1535.6 1145.7 1543.8 1145.7 1552.1 1145.7 1552.1 1162.5 1560.4 1162.5 1560.4 1179.2 1560.4 1196 1560.4 1212.8 1568.6 1212.8 1568.6 1196 1576.9 1196"/><polygon class="cls-4" points="1196.9 1162.5 1196.9 1145.7 1188.7 1145.7 1180.4 1145.7 1180.4 1162.5 1188.7 1162.5 1196.9 1162.5"/><polygon class="cls-4" points="1213.4 1145.7 1213.4 1129 1205.2 1129 1196.9 1129 1196.9 1145.7 1205.2 1145.7 1213.4 1145.7"/><polygon class="cls-4" points="1527.3 1112.2 1519 1112.2 1510.8 1112.2 1502.5 1112.2 1494.3 1112.2 1486 1112.2 1477.8 1112.2 1477.8 1095.4 1469.5 1095.4 1469.5 1078.7 1461.2 1078.7 1453 1078.7 1453 1078.7 1444.7 1078.7 1444.7 1095.4 1453 1095.4 1453 1095.4 1461.2 1095.4 1461.2 1112.2 1469.5 1112.2 1469.5 1129 1477.8 1129 1486 1129 1494.3 1129 1502.5 1129 1510.8 1129 1519 1129 1527.3 1129 1535.6 1129 1535.6 1112.2 1527.3 1112.2"/><polygon class="cls-4" points="1230 1112.2 1221.7 1112.2 1221.7 1129 1230 1129 1238.2 1129 1246.5 1129 1246.5 1112.2 1238.2 1112.2 1230 1112.2"/><rect class="cls-4" x="1362.1" y="1078.7" width="8.3" height="16.75"/><polygon class="cls-4" points="1296 1078.7 1287.8 1078.7 1279.5 1078.7 1279.5 1095.4 1271.3 1095.4 1271.3 1112.2 1263 1112.2 1263 1129 1263 1145.7 1271.3 1145.7 1279.5 1145.7 1279.5 1129 1279.5 1112.2 1287.8 1112.2 1287.8 1095.4 1296 1095.4 1304.3 1095.4 1312.6 1095.4 1312.6 1078.7 1304.3 1078.7 1296 1078.7"/><polygon class="cls-4" points="1337.3 1078.7 1345.6 1078.7 1353.9 1078.7 1353.9 1061.9 1345.6 1061.9 1337.3 1061.9 1329.1 1061.9 1320.8 1061.9 1320.8 1078.7 1329.1 1078.7 1337.3 1078.7"/><rect class="cls-4" x="2060.9" y="1413.9" width="8.3" height="16.77"/><rect class="cls-4" x="2085.7" y="1397.1" width="8.3" height="16.74"/><rect class="cls-5" x="1854.4" y="1279.8" width="8.3" height="16.77"/><rect class="cls-4" x="1656.2" y="1246.3" width="8.3" height="16.76"/><rect class="cls-4" x="2118.7" y="1229.5" width="8.3" height="16.76"/><rect class="cls-6" x="2077.4" y="1212.8" width="8.3" height="16.76"/><rect class="cls-5" x="1705.7" y="1212.8" width="8.3" height="16.76"/><rect class="cls-4" x="1680.9" y="1196" width="8.3" height="16.76"/><polygon class="cls-4" points="1664.4 1330.1 1689.2 1330.1 1689.2 1346.8 1672.7 1346.8 1672.7 1397.1 1680.9 1397.1 1680.9 1413.9 1697.4 1413.9 1697.4 1430.6 1755.3 1430.6 1755.3 1431.2 2027.9 1431.2 2027.9 1430.6 2060.9 1430.6 2060.9 1413.9 1994.8 1413.9 1994.8 1397.1 1978.3 1397.1 1978.3 1380.3 1970 1380.3 1970 1363.6 1961.8 1363.6 1961.8 1397.1 1945.2 1397.1 1945.2 1413.9 1879.2 1413.9 1879.2 1397.1 1862.7 1397.1 1862.7 1380.3 1854.4 1380.3 1854.4 1363.6 1771.8 1363.6 1771.8 1346.8 1755.3 1346.8 1755.3 1330.1 1738.8 1330.1 1738.8 1279.8 1714 1279.8 1714 1263 1689.2 1263 1689.2 1246.3 1680.9 1246.3 1680.9 1229.5 1672.7 1229.5 1672.7 1246.3 1664.4 1246.3 1664.4 1263 1656.2 1263 1656.2 1313.3 1664.4 1313.3 1664.4 1330.1"/><polygon class="cls-4" points="1895.7 1363.6 1887.4 1363.6 1887.4 1380.3 1895.7 1380.3 1904 1380.3 1912.2 1380.3 1912.2 1363.6 1904 1363.6 1895.7 1363.6"/><polygon class="cls-4" points="1755.3 1279.8 1755.3 1263 1747 1263 1738.8 1263 1738.8 1279.8 1747 1279.8 1755.3 1279.8"/><polygon class="cls-4" points="1961.8 1263 1970 1263 1978.3 1263 1986.6 1263 1994.8 1263 2003.1 1263 2011.3 1263 2019.6 1263 2027.9 1263 2036.1 1263 2036.1 1246.3 2027.9 1246.3 2019.6 1246.3 2011.3 1246.3 2003.1 1246.3 1994.8 1246.3 1986.6 1246.3 1978.3 1246.3 1970 1246.3 1961.8 1246.3 1953.5 1246.3 1953.5 1263 1961.8 1263"/><polygon class="cls-4" points="1813.1 1212.8 1821.4 1212.8 1829.6 1212.8 1837.9 1212.8 1846.1 1212.8 1854.4 1212.8 1862.7 1212.8 1870.9 1212.8 1879.2 1212.8 1887.4 1212.8 1895.7 1212.8 1895.7 1196 1887.4 1196 1879.2 1196 1870.9 1196 1862.7 1196 1854.4 1196 1846.1 1196 1837.9 1196 1829.6 1196 1821.4 1196 1813.1 1196 1804.8 1196 1804.8 1212.8 1813.1 1212.8"/><polygon class="cls-5" points="2044.4 1330.1 2036.1 1330.1 2027.9 1330.1 2027.9 1346.8 2027.9 1363.6 2036.1 1363.6 2044.4 1363.6 2052.6 1363.6 2052.6 1346.8 2052.6 1330.1 2044.4 1330.1"/><polygon class="cls-5" points="1780.1 1330.1 1771.8 1330.1 1771.8 1346.8 1771.8 1363.6 1780.1 1363.6 1788.3 1363.6 1796.6 1363.6 1796.6 1346.8 1796.6 1330.1 1788.3 1330.1 1780.1 1330.1"/><polygon class="cls-5" points="1862.7 1263 1854.4 1263 1854.4 1279.8 1862.7 1279.8 1862.7 1296.6 1870.9 1296.6 1879.2 1296.6 1879.2 1279.8 1879.2 1263 1870.9 1263 1862.7 1263"/><polygon class="cls-5" points="1953.5 1162.5 1945.2 1162.5 1945.2 1179.2 1953.5 1179.2 1961.8 1179.2 1970 1179.2 1970 1162.5 1961.8 1162.5 1953.5 1162.5"/><rect class="cls-4" x="1697.4" y="1162.5" width="8.3" height="16.76"/><rect class="cls-5" x="1978.3" y="1129" width="8.3" height="16.76"/><rect class="cls-7" x="1730.5" y="1129" width="8.3" height="16.76"/><rect class="cls-4" x="1763.5" y="1112.2" width="8.3" height="16.75"/><path class="cls-5" d="M2110.4,1246.3v-16.8h-33v-67h-8.3v-16.8h-16.5V1129h-66.1v16.8h-8.3V1129h8.3v-16.8h-8.3v-16.8h-16.5v-16.7h-74.3v16.7h-8.3v-16.7h-49.6v16.7h-24.8v16.8h-8.3v33.5h-16.5V1129h-41.3v16.8H1714v16.8h-8.3v16.8h-8.3v33.5H1714v16.8h-33v16.8h8.3V1263H1714v16.7h24.8V1263h16.5v16.7h-16.5v50.3h16.5v16.7h16.5v-16.7h24.8v33.5h57.8v16.7h8.3v16.8h16.5v16.7h66.1v-16.7h16.5v-33.5h8.3v16.7h8.3v16.8h16.5v16.7h90.9v-16.7h16.5v-50.3h-8.3v-16.7h8.3v-16.8h16.5v-67Zm-156.9,0h82.6V1263h-82.6Zm-99.1,33.5V1263h24.8v33.5h-24.8Zm-33-83.8h74.3v16.8h-90.9V1196h16.5Zm206.5,150.8v-16.7h24.8v33.5h-24.8ZM1970,1179.2h-24.8v-16.8H1970Zm-82.6,184.4h24.8v16.7h-24.8Z" transform="translate(0)"/><polygon class="cls-4" points="2135.2 1296.6 2135.2 1279.8 2135.2 1263 2135.2 1246.3 2127 1246.3 2118.7 1246.3 2118.7 1263 2118.7 1263 2118.7 1279.8 2118.7 1296.6 2127 1296.6 2127 1279.8 2127 1263 2127 1263 2127 1279.8 2127 1296.6 2127 1296.6 2127 1296.6 2118.7 1296.6 2118.7 1313.3 2127 1313.3 2127 1313.3 2135.2 1313.3 2135.2 1296.6 2135.2 1296.6"/><polygon class="cls-4" points="1953.5 1061.9 1953.5 1061.9 1945.2 1061.9 1937 1061.9 1928.7 1061.9 1920.5 1061.9 1912.2 1061.9 1904 1061.9 1895.7 1061.9 1887.4 1061.9 1887.4 1078.7 1895.7 1078.7 1904 1078.7 1912.2 1078.7 1920.5 1078.7 1928.7 1078.7 1937 1078.7 1945.2 1078.7 1953.5 1078.7 1953.5 1078.7 1961.8 1078.7 1961.8 1061.9 1953.5 1061.9"/><polygon class="cls-4" points="1697.4 1430.6 1697.4 1431.2 1747 1431.2 1747 1430.6 1705.7 1430.6 1705.7 1430.6 1697.4 1430.6 1697.4 1413.9 1680.9 1413.9 1680.9 1430.6 1697.4 1430.6"/><rect class="cls-4" x="2027.9" y="1430.6" width="16.5" height="0.57"/><polygon class="cls-4" points="2069.2 1413.9 2069.2 1430.6 2077.4 1430.6 2085.7 1430.6 2085.7 1413.9 2077.4 1413.9 2069.2 1413.9"/><polygon class="cls-4" points="1672.7 1397.1 1672.7 1380.3 1672.7 1363.6 1672.7 1346.8 1680.9 1346.8 1689.2 1346.8 1689.2 1330.1 1680.9 1330.1 1672.7 1330.1 1664.4 1330.1 1664.4 1346.8 1656.2 1346.8 1656.2 1363.6 1656.2 1380.3 1656.2 1397.1 1664.4 1397.1 1664.4 1413.9 1672.7 1413.9 1680.9 1413.9 1680.9 1397.1 1672.7 1397.1"/><polygon class="cls-4" points="2102.2 1313.3 2102.2 1330.1 2093.9 1330.1 2093.9 1346.8 2102.2 1346.8 2102.2 1363.6 2102.2 1380.3 2102.2 1397.1 2093.9 1397.1 2093.9 1413.9 2102.2 1413.9 2110.4 1413.9 2110.4 1397.1 2118.7 1397.1 2118.7 1380.3 2118.7 1363.6 2118.7 1346.8 2110.4 1346.8 2110.4 1330.1 2118.7 1330.1 2118.7 1313.3 2110.4 1313.3 2102.2 1313.3"/><polygon class="cls-4" points="1656.2 1313.3 1656.2 1296.6 1656.2 1279.8 1656.2 1263 1656.2 1246.3 1647.9 1246.3 1647.9 1263 1639.6 1263 1639.6 1279.8 1639.6 1296.6 1639.6 1313.3 1647.9 1313.3 1647.9 1330.1 1656.2 1330.1 1664.4 1330.1 1664.4 1313.3 1656.2 1313.3"/><rect class="cls-4" x="2110.4" y="1229.5" width="8.3" height="16.76"/><polygon class="cls-4" points="1672.7 1246.3 1672.7 1229.5 1680.9 1229.5 1680.9 1229.5 1689.2 1229.5 1697.4 1229.5 1705.7 1229.5 1705.7 1212.8 1697.4 1212.8 1697.4 1196 1697.4 1179.2 1697.4 1162.5 1689.2 1162.5 1689.2 1179.2 1680.9 1179.2 1680.9 1196 1689.2 1196 1689.2 1212.8 1680.9 1212.8 1680.9 1212.8 1672.7 1212.8 1672.7 1229.5 1664.4 1229.5 1656.2 1229.5 1656.2 1246.3 1664.4 1246.3 1672.7 1246.3"/><polygon class="cls-4" points="2102.2 1212.8 2093.9 1212.8 2085.7 1212.8 2085.7 1229.5 2093.9 1229.5 2102.2 1229.5 2110.4 1229.5 2110.4 1212.8 2102.2 1212.8"/><polygon class="cls-4" points="2093.9 1196 2093.9 1179.2 2085.7 1179.2 2085.7 1162.5 2085.7 1145.7 2077.4 1145.7 2077.4 1129 2069.2 1129 2060.9 1129 2052.6 1129 2052.6 1145.7 2060.9 1145.7 2069.2 1145.7 2069.2 1162.5 2077.4 1162.5 2077.4 1179.2 2077.4 1196 2077.4 1212.8 2085.7 1212.8 2085.7 1196 2093.9 1196"/><polygon class="cls-4" points="1714 1162.5 1714 1145.7 1705.7 1145.7 1697.4 1145.7 1697.4 1162.5 1705.7 1162.5 1714 1162.5"/><polygon class="cls-4" points="1730.5 1145.7 1730.5 1129 1722.2 1129 1714 1129 1714 1145.7 1722.2 1145.7 1730.5 1145.7"/><polygon class="cls-4" points="2044.4 1112.2 2036.1 1112.2 2027.9 1112.2 2019.6 1112.2 2011.3 1112.2 2003.1 1112.2 1994.8 1112.2 1994.8 1095.4 1986.6 1095.4 1986.6 1078.7 1978.3 1078.7 1970 1078.7 1970 1078.7 1961.8 1078.7 1961.8 1095.4 1970 1095.4 1970 1095.4 1978.3 1095.4 1978.3 1112.2 1986.6 1112.2 1986.6 1129 1994.8 1129 2003.1 1129 2011.3 1129 2019.6 1129 2027.9 1129 2036.1 1129 2044.4 1129 2052.6 1129 2052.6 1112.2 2044.4 1112.2"/><polygon class="cls-4" points="1747 1112.2 1738.8 1112.2 1738.8 1129 1747 1129 1755.3 1129 1763.5 1129 1763.5 1112.2 1755.3 1112.2 1747 1112.2"/><rect class="cls-4" x="1879.2" y="1078.7" width="8.3" height="16.75"/><polygon class="cls-4" points="1813.1 1078.7 1804.8 1078.7 1796.6 1078.7 1796.6 1095.4 1788.3 1095.4 1788.3 1112.2 1780.1 1112.2 1780.1 1129 1780.1 1145.7 1788.3 1145.7 1796.6 1145.7 1796.6 1129 1796.6 1112.2 1804.8 1112.2 1804.8 1095.4 1813.1 1095.4 1821.4 1095.4 1829.6 1095.4 1829.6 1078.7 1821.4 1078.7 1813.1 1078.7"/><polygon class="cls-4" points="1854.4 1078.7 1862.7 1078.7 1870.9 1078.7 1870.9 1061.9 1862.7 1061.9 1854.4 1061.9 1846.1 1061.9 1837.9 1061.9 1837.9 1078.7 1846.1 1078.7 1854.4 1078.7"/><rect class="cls-5" x="1575.6" y="1416.7" width="641" height="284.84"/><polygon class="cls-8" points="2216.6 1465.4 2168.1 1465.4 2168.1 1523.8 2070.8 1523.8 2070.8 1564 1929.6 1564 1929.6 1666.3 1866.8 1666.3 1866.8 1523.8 1785.2 1523.8 1785.2 1574.9 1678.4 1574.9 1678.4 1648 1575.6 1648 1575.6 1701.5 2216.6 1701.5 2216.6 1465.4"/><rect class="cls-9" x="1575.6" y="1701.5" width="641" height="328.67"/><polygon class="cls-10" points="2216.6 1954.8 2216.6 1797.7 2202.7 1797.7 2202.7 1852.5 2124.2 1852.5 2124.2 1790.4 2052 1790.4 2052 1739.3 2023.7 1739.3 2023.7 1779.5 1998.6 1779.5 1998.6 1837.9 1945.3 1837.9 1945.3 1779.5 1876.2 1779.5 1876.2 1852.5 1822.8 1852.5 1822.8 1757.5 1722.4 1757.5 1722.4 1797.7 1637.6 1797.7 1637.6 1863.5 1575.6 1863.5 1575.6 1929.2 1650.2 1929.2 1650.2 2030.2 1691 2030.2 1691 1896.3 1750.6 1896.3 1750.6 1962.1 1794.6 1962.1 1794.6 1918.2 1891.9 1918.2 1891.9 1976.7 1939 1976.7 1939 1921.9 2030 1921.9 2030 1987.6 2099.1 1987.6 2099.1 1940.2 2158.7 1940.2 2158.7 1954.8 2216.6 1954.8"/><rect class="cls-9" x="2022.2" y="1842.1" width="41.6" height="47.47"/><rect class="cls-9" x="2115.6" y="1879.2" width="41.6" height="47.47"/><rect class="cls-9" x="1939" y="1889.6" width="41.6" height="47.47"/><rect class="cls-9" x="1794.6" y="1893" width="41.6" height="47.48"/><rect class="cls-9" x="1721.3" y="1794.6" width="41.6" height="47.47"/><rect class="cls-9" x="1612.5" y="1862.2" width="41.6" height="47.47"/><rect class="cls-9" x="2008" y="1657.7" width="50.2" height="47.47"/><rect class="cls-9" x="1766.3" y="1677.8" width="50.2" height="47.47"/><rect class="cls-8" x="1957.8" y="1681.4" width="50.2" height="47.47"/><rect class="cls-8" x="2106.9" y="1679" width="50.2" height="47.47"/><rect class="cls-8" x="1852.6" y="1691.5" width="50.2" height="47.47"/><rect class="cls-8" x="1656.5" y="1677.8" width="50.2" height="47.47"/><rect class="cls-5" y="1416.7" width="1615" height="284.84"/><polygon class="cls-8" points="1568.8 1491 1568.8 1534.8 1537.4 1534.8 1537.4 1578.6 1465.2 1578.6 1465.2 1615.1 1396.2 1615.1 1396.2 1553 1364.8 1553 1364.8 1534.8 1302 1534.8 1302 1512.9 1245.5 1512.9 1245.5 1567.7 1217.2 1567.7 1217.2 1648 1185.8 1648 1185.8 1567.7 1135.6 1567.7 1135.6 1494.6 1101.1 1494.6 1101.1 1596.9 988.1 1596.9 988.1 1498.3 884.5 1498.3 884.5 1571.3 828 1571.3 828 1607.8 755.8 1607.8 755.8 1560.3 730.7 1560.3 730.7 1582.3 658.5 1582.3 658.5 1465.4 592.5 1465.4 592.5 1523.8 495.2 1523.8 495.2 1564 354 1564 354 1666.3 291.2 1666.3 291.2 1523.8 209.6 1523.8 209.6 1575 102.8 1575 102.8 1648 0 1648 0 1701.5 1615 1701.5 1615 1491 1568.8 1491"/><rect class="cls-9" y="1701.5" width="1615" height="328.67"/><polygon class="cls-10" points="1562.5 1870.8 1615 1870.8 1615 1837.9 1581.4 1837.9 1581.4 1735.6 1493.5 1735.6 1493.5 1794.1 1396.2 1794.1 1396.2 1701.5 1361.6 1701.5 1361.6 1779.5 1317.7 1779.5 1317.7 1808.7 1261.2 1808.7 1261.2 1779.5 1176.4 1779.5 1176.4 1823.3 1094.8 1823.3 1094.8 1701.5 1079.1 1701.5 1079.1 1772.2 981.8 1772.2 981.8 1848.8 862.5 1848.8 862.5 1790.4 784 1790.4 784 1757.5 758.9 1757.5 758.9 1870.8 671 1870.8 671 1797.7 627.1 1797.7 627.1 1852.5 548.6 1852.5 548.6 1790.4 476.4 1790.4 476.4 1739.3 448.1 1739.3 448.1 1779.5 423 1779.5 423 1837.9 369.6 1837.9 369.6 1779.5 300.6 1779.5 300.6 1852.5 247.2 1852.5 247.2 1757.5 146.8 1757.5 146.8 1797.7 62 1797.7 62 1863.5 0 1863.5 0 1929.2 74.6 1929.2 74.6 2030.2 115.4 2030.2 115.4 1896.3 175 1896.3 175 1962.1 219 1962.1 219 1918.2 316.3 1918.2 316.3 1976.7 363.4 1976.7 363.4 1921.9 454.4 1921.9 454.4 1987.6 523.5 1987.6 523.5 1940.2 583.1 1940.2 583.1 1954.8 671 1954.8 671 1918.2 824.8 1918.2 824.8 1896.3 1016.3 1896.3 1016.3 1976.7 1044.6 1976.7 1044.6 1932.9 1198.4 1932.9 1198.4 2030.2 1258 2030.2 1258 1870.8 1320.8 1870.8 1320.8 1947.5 1367.9 1947.5 1367.9 1892.7 1477.8 1892.7 1477.8 2002.2 1553.1 2002.2 1553.1 1954.8 1562.5 1954.8 1562.5 1870.8"/><path class="cls-11" d="M1555.6,1763.6h15.5v-.8Z" transform="translate(0)"/><rect class="cls-9" x="1411.9" y="1657.7" width="50.2" height="47.47"/><rect class="cls-9" x="912.7" y="1657.7" width="50.2" height="47.47"/><rect class="cls-9" x="649" y="1657.7" width="50.2" height="47.47"/><rect class="cls-9" x="446.6" y="1842.1" width="41.6" height="47.47"/><rect class="cls-9" x="540" y="1879.2" width="41.6" height="47.47"/><rect class="cls-9" x="793.7" y="1813.5" width="41.6" height="47.48"/><rect class="cls-9" x="752.6" y="1883.5" width="41.6" height="47.47"/><rect class="cls-9" x="908" y="1828.7" width="41.6" height="47.47"/><rect class="cls-9" x="1033.6" y="1842.1" width="41.6" height="47.47"/><rect class="cls-9" x="1104.2" y="1865.8" width="41.6" height="47.47"/><rect class="cls-9" x="1202.3" y="1805" width="41.6" height="47.47"/><rect class="cls-9" x="1310.2" y="1821.4" width="41.6" height="47.47"/><rect class="cls-9" x="1477.7" y="1805" width="41.6" height="47.47"/><rect class="cls-9" x="1509.6" y="1889.6" width="41.6" height="47.47"/><rect class="cls-9" x="1411.9" y="1865.8" width="41.6" height="47.47"/><rect class="cls-9" x="1231.8" y="1943.1" width="41.6" height="47.47"/><rect class="cls-9" x="363.4" y="1889.6" width="41.6" height="47.47"/><rect class="cls-9" x="219" y="1893" width="41.6" height="47.48"/><rect class="cls-9" x="145.7" y="1794.6" width="41.6" height="47.47"/><rect class="cls-9" x="36.9" y="1862.2" width="41.6" height="47.47"/><rect class="cls-9" x="432.4" y="1657.7" width="50.2" height="47.47"/><rect class="cls-9" x="1063.4" y="1679" width="50.2" height="47.47"/><rect class="cls-9" x="1227.5" y="1677.8" width="50.2" height="47.47"/><rect class="cls-9" x="190.7" y="1677.8" width="50.2" height="47.47"/><rect class="cls-8" x="382.2" y="1681.4" width="50.2" height="47.47"/><rect class="cls-8" x="531.3" y="1679" width="50.2" height="47.47"/><rect class="cls-8" x="727.5" y="1691.5" width="50.2" height="47.47"/><rect class="cls-8" x="829.5" y="1679" width="50.2" height="47.47"/><rect class="cls-8" x="1013.2" y="1691.5" width="50.2" height="47.47"/><rect class="cls-8" x="1152.1" y="1691.5" width="50.2" height="47.47"/><rect class="cls-8" x="1305.9" y="1691.5" width="50.2" height="47.47"/><rect class="cls-8" x="1491.1" y="1663.2" width="50.2" height="47.47"/><rect class="cls-8" x="277" y="1691.5" width="50.2" height="47.47"/><rect class="cls-8" x="80.8" y="1677.8" width="50.2" height="47.47"/><polygon class="cls-12" points="792.5 645.6 792.5 637.1 782.5 637.1 782.5 628.6 772.5 628.6 772.5 620.1 772.5 611.6 762.6 611.6 762.6 603.1 762.6 594.6 762.6 586.1 762.6 577.6 762.6 569.1 762.6 560.7 762.6 552.2 752.6 552.2 752.6 560.7 742.6 560.7 742.6 569.1 732.7 569.1 722.7 569.1 712.7 569.1 702.8 569.1 692.8 569.1 682.8 569.1 682.8 560.7 672.9 560.7 672.9 552.2 662.9 552.2 662.9 543.7 652.9 543.7 652.9 552.2 643 552.2 643 560.7 643 569.1 633 569.1 633 577.6 623 577.6 623 586.1 613.1 586.1 613.1 594.6 603.1 594.6 593.1 594.6 593.1 603.1 583.1 603.1 573.2 603.1 563.2 603.1 553.2 603.1 543.3 603.1 533.3 603.1 523.3 603.1 513.4 603.1 513.4 594.6 503.4 594.6 493.4 594.6 493.4 586.1 483.5 586.1 483.5 577.6 473.5 577.6 473.5 569.1 463.5 569.1 453.6 569.1 453.6 577.6 443.6 577.6 443.6 586.1 433.6 586.1 423.6 586.1 413.7 586.1 403.7 586.1 393.7 586.1 383.8 586.1 383.8 577.6 373.8 577.6 373.8 569.1 363.8 569.1 363.8 560.7 363.8 552.2 353.9 552.2 353.9 543.7 353.9 535.2 353.9 526.7 353.9 518.2 343.9 518.2 343.9 526.7 343.9 535.2 343.9 543.7 333.9 543.7 333.9 552.2 333.9 560.7 333.9 569.1 333.9 577.6 333.9 586.1 333.9 594.6 343.9 594.6 343.9 603.1 343.9 611.6 343.9 620.1 353.9 620.1 353.9 628.6 353.9 637.1 363.8 637.1 363.8 645.6 373.8 645.6 373.8 654 383.8 654 393.7 654 393.7 662.5 403.7 662.5 413.7 662.5 423.6 662.5 433.6 662.5 443.6 662.5 453.6 662.5 463.5 662.5 473.5 662.5 483.5 662.5 493.4 662.5 503.4 662.5 513.4 662.5 523.3 662.5 533.3 662.5 543.3 662.5 553.2 662.5 563.2 662.5 573.2 662.5 583.1 662.5 593.1 662.5 603.1 662.5 613.1 662.5 623 662.5 633 662.5 643 662.5 652.9 662.5 662.9 662.5 672.9 662.5 682.8 662.5 692.8 662.5 702.8 662.5 712.7 662.5 722.7 662.5 732.7 662.5 742.6 662.5 752.6 662.5 762.6 662.5 772.5 662.5 782.5 662.5 792.5 662.5 792.5 654 802.5 654 802.5 645.6 792.5 645.6"/><polygon class="cls-13" points="822.4 569.1 822.4 560.7 822.4 552.2 812.4 552.2 812.4 543.7 802.5 543.7 802.5 535.2 792.5 535.2 792.5 526.7 782.5 526.7 772.5 526.7 762.6 526.7 762.6 518.2 762.6 509.7 762.6 501.2 752.6 501.2 752.6 492.7 752.6 484.3 752.6 475.8 742.6 475.8 742.6 467.3 732.7 467.3 732.7 458.8 722.7 458.8 722.7 450.3 712.7 450.3 712.7 441.8 702.8 441.8 692.8 441.8 682.8 441.8 672.9 441.8 662.9 441.8 652.9 441.8 643 441.8 633 441.8 633 450.3 623 450.3 623 441.8 623 433.3 613.1 433.3 613.1 424.8 603.1 424.8 593.1 424.8 593.1 416.3 583.1 416.3 583.1 407.8 573.2 407.8 563.2 407.8 553.2 407.8 543.3 407.8 533.3 407.8 523.3 407.8 523.3 416.3 513.4 416.3 503.4 416.3 503.4 424.8 493.4 424.8 493.4 433.3 483.5 433.3 483.5 441.8 473.5 441.8 473.5 450.3 463.5 450.3 463.5 458.8 463.5 467.3 463.5 475.8 453.6 475.8 443.6 475.8 433.6 475.8 423.6 475.8 413.7 475.8 403.7 475.8 393.7 475.8 393.7 484.3 383.8 484.3 373.8 484.3 373.8 492.7 363.8 492.7 363.8 501.2 353.9 501.2 353.9 509.7 353.9 518.2 353.9 526.7 353.9 535.2 353.9 543.7 353.9 552.2 363.8 552.2 363.8 560.7 363.8 569.1 373.8 569.1 373.8 577.6 383.8 577.6 383.8 586.1 393.7 586.1 403.7 586.1 413.7 586.1 423.6 586.1 433.6 586.1 443.6 586.1 443.6 577.6 453.6 577.6 453.6 569.1 463.5 569.1 473.5 569.1 473.5 577.6 483.5 577.6 483.5 586.1 493.4 586.1 493.4 594.6 503.4 594.6 513.4 594.6 513.4 603.1 523.3 603.1 533.3 603.1 543.3 603.1 553.2 603.1 563.2 603.1 573.2 603.1 583.1 603.1 593.1 603.1 593.1 594.6 603.1 594.6 613.1 594.6 613.1 586.1 623 586.1 623 577.6 633 577.6 633 569.1 643 569.1 643 560.7 643 552.2 652.9 552.2 652.9 543.7 662.9 543.7 662.9 552.2 672.9 552.2 672.9 560.7 682.8 560.7 682.8 569.1 692.8 569.1 702.8 569.1 712.7 569.1 722.7 569.1 732.7 569.1 742.6 569.1 742.6 560.7 752.6 560.7 752.6 552.2 762.6 552.2 762.6 560.7 762.6 569.1 762.6 577.6 762.6 586.1 762.6 594.6 762.6 603.1 762.6 611.6 772.5 611.6 772.5 620.1 772.5 628.6 782.5 628.6 782.5 637.1 792.5 637.1 792.5 645.6 802.5 645.6 802.5 654 812.4 654 812.4 645.6 812.4 637.1 822.4 637.1 822.4 628.6 832.4 628.6 832.4 620.1 832.4 611.6 832.4 603.1 832.4 594.6 832.4 586.1 832.4 577.6 832.4 569.1 822.4 569.1"/><polygon class="cls-12" points="1954.8 648.6 1954.8 639.5 1944.2 639.5 1944.2 630.5 1933.6 630.5 1933.6 621.4 1933.6 612.4 1922.9 612.4 1922.9 603.3 1922.9 594.3 1922.9 585.2 1922.9 576.2 1922.9 567.1 1922.9 558.1 1922.9 549 1912.3 549 1912.3 558.1 1901.7 558.1 1901.7 567.1 1891.1 567.1 1880.4 567.1 1869.8 567.1 1859.2 567.1 1848.6 567.1 1837.9 567.1 1837.9 558.1 1827.3 558.1 1827.3 549 1816.7 549 1816.7 540 1806.1 540 1806.1 549 1795.4 549 1795.4 558.1 1795.4 567.1 1784.8 567.1 1784.8 576.2 1774.2 576.2 1774.2 585.2 1763.6 585.2 1763.6 594.3 1752.9 594.3 1742.3 594.3 1742.3 603.3 1731.7 603.3 1721.1 603.3 1710.4 603.3 1699.8 603.3 1689.2 603.3 1678.6 603.3 1667.9 603.3 1657.3 603.3 1657.3 594.3 1646.7 594.3 1636.1 594.3 1636.1 585.2 1625.4 585.2 1625.4 576.2 1614.8 576.2 1614.8 567.1 1604.2 567.1 1593.6 567.1 1593.6 576.2 1582.9 576.2 1582.9 585.2 1572.3 585.2 1561.7 585.2 1551.1 585.2 1540.4 585.2 1529.8 585.2 1519.2 585.2 1519.2 576.2 1508.6 576.2 1508.6 567.1 1497.9 567.1 1497.9 558.1 1497.9 549 1487.3 549 1487.3 540 1487.3 530.9 1487.3 521.9 1487.3 512.9 1476.7 512.9 1476.7 521.9 1476.7 530.9 1476.7 540 1466.1 540 1466.1 549 1466.1 558.1 1466.1 567.1 1466.1 576.2 1466.1 585.2 1466.1 594.3 1476.7 594.3 1476.7 603.3 1476.7 612.4 1476.7 621.4 1487.3 621.4 1487.3 630.5 1487.3 639.5 1497.9 639.5 1497.9 648.6 1508.6 648.6 1508.6 657.6 1519.2 657.6 1529.8 657.6 1529.8 666.7 1540.4 666.7 1551.1 666.7 1561.7 666.7 1572.3 666.7 1582.9 666.7 1593.6 666.7 1604.2 666.7 1614.8 666.7 1625.4 666.7 1636.1 666.7 1646.7 666.7 1657.3 666.7 1667.9 666.7 1678.6 666.7 1689.2 666.7 1699.8 666.7 1710.4 666.7 1721.1 666.7 1731.7 666.7 1742.3 666.7 1752.9 666.7 1763.6 666.7 1774.2 666.7 1784.8 666.7 1795.4 666.7 1806.1 666.7 1816.7 666.7 1827.3 666.7 1837.9 666.7 1848.6 666.7 1859.2 666.7 1869.8 666.7 1880.4 666.7 1891.1 666.7 1901.7 666.7 1912.3 666.7 1922.9 666.7 1933.6 666.7 1944.2 666.7 1954.8 666.7 1954.8 657.6 1965.4 657.6 1965.4 648.6 1954.8 648.6"/><polygon class="cls-13" points="1986.7 567.1 1986.7 558.1 1986.7 549 1976.1 549 1976.1 540 1965.4 540 1965.4 530.9 1954.8 530.9 1954.8 521.9 1944.2 521.9 1933.6 521.9 1922.9 521.9 1922.9 512.9 1922.9 503.8 1922.9 494.7 1912.3 494.7 1912.3 485.7 1912.3 476.7 1912.3 467.6 1901.7 467.6 1901.7 458.6 1891.1 458.6 1891.1 449.5 1880.4 449.5 1880.4 440.5 1869.8 440.5 1869.8 431.4 1859.2 431.4 1848.6 431.4 1837.9 431.4 1827.3 431.4 1816.7 431.4 1806.1 431.4 1795.4 431.4 1784.8 431.4 1784.8 440.5 1774.2 440.5 1774.2 431.4 1774.2 422.4 1763.6 422.4 1763.6 413.3 1752.9 413.3 1742.3 413.3 1742.3 404.3 1731.7 404.3 1731.7 395.2 1721.1 395.2 1710.4 395.2 1699.8 395.2 1689.2 395.2 1678.6 395.2 1667.9 395.2 1667.9 404.3 1657.3 404.3 1646.7 404.3 1646.7 413.3 1636.1 413.3 1636.1 422.4 1625.4 422.4 1625.4 431.4 1614.8 431.4 1614.8 440.5 1604.2 440.5 1604.2 449.5 1604.2 458.6 1604.2 467.6 1593.6 467.6 1582.9 467.6 1572.3 467.6 1561.7 467.6 1551.1 467.6 1540.4 467.6 1529.8 467.6 1529.8 476.7 1519.2 476.7 1508.6 476.7 1508.6 485.7 1497.9 485.7 1497.9 494.7 1487.3 494.7 1487.3 503.8 1487.3 512.9 1487.3 521.9 1487.3 530.9 1487.3 540 1487.3 549 1497.9 549 1497.9 558.1 1497.9 567.1 1508.6 567.1 1508.6 576.2 1519.2 576.2 1519.2 585.2 1529.8 585.2 1540.4 585.2 1551.1 585.2 1561.7 585.2 1572.3 585.2 1582.9 585.2 1582.9 576.2 1593.6 576.2 1593.6 567.1 1604.2 567.1 1614.8 567.1 1614.8 576.2 1625.4 576.2 1625.4 585.2 1636.1 585.2 1636.1 594.3 1646.7 594.3 1657.3 594.3 1657.3 603.3 1667.9 603.3 1678.6 603.3 1689.2 603.3 1699.8 603.3 1710.4 603.3 1721.1 603.3 1731.7 603.3 1742.3 603.3 1742.3 594.3 1752.9 594.3 1763.6 594.3 1763.6 585.2 1774.2 585.2 1774.2 576.2 1784.8 576.2 1784.8 567.1 1795.4 567.1 1795.4 558.1 1795.4 549 1806.1 549 1806.1 540 1816.7 540 1816.7 549 1827.3 549 1827.3 558.1 1837.9 558.1 1837.9 567.1 1848.6 567.1 1859.2 567.1 1869.8 567.1 1880.4 567.1 1891.1 567.1 1901.7 567.1 1901.7 558.1 1912.3 558.1 1912.3 549 1922.9 549 1922.9 558.1 1922.9 567.1 1922.9 576.2 1922.9 585.2 1922.9 594.3 1922.9 603.3 1922.9 612.4 1933.6 612.4 1933.6 621.4 1933.6 630.5 1944.2 630.5 1944.2 639.5 1954.8 639.5 1954.8 648.6 1965.4 648.6 1965.4 657.6 1976.1 657.6 1976.1 648.6 1976.1 639.5 1986.7 639.5 1986.7 630.5 1997.3 630.5 1997.3 621.4 1997.3 612.4 1997.3 603.3 1997.3 594.3 1997.3 585.2 1997.3 576.2 1997.3 567.1 1986.7 567.1"/><rect class="cls-14" x="934.1" y="471" width="381.9" height="391.41"/><rect class="cls-15" x="975.1" y="513" width="299.8" height="307.34"/><rect class="cls-16" x="985.7" y="789.9" width="29.7" height="30.76"/><polygon class="cls-16" points="1247.7 513 1247.7 543.8 1218 543.8 1218 574.5 1188.3 574.5 1188.3 605.3 1158.6 605.3 1158.6 636.1 1128.9 636.1 1128.9 666.8 1099.2 666.8 1099.2 697.6 1069.5 697.6 1069.5 728.3 1039.8 728.3 1039.8 759.1 1010.1 759.1 1010.1 789.9 1010.1 820.6 1039.8 820.6 1069.5 820.6 1099.2 820.6 1128.9 820.6 1158.6 820.6 1188.3 820.6 1218 820.6 1247.7 820.6 1277.4 820.6 1277.4 789.9 1277.4 759.1 1277.4 728.3 1277.4 697.6 1277.4 666.8 1277.4 636.1 1277.4 605.3 1277.4 574.5 1277.4 543.8 1277.4 513 1247.7 513"/><rect class="cls-14" x="959.3" y="519.3" width="28.5" height="28.51"/><rect class="cls-14" x="959.3" y="498" width="28.5" height="49.74"/><rect class="cls-14" x="985.8" y="494.4" width="28.5" height="28.5"/><rect class="cls-14" x="1261.6" y="496.2" width="28.5" height="49.71"/><rect class="cls-14" x="1235.1" y="492.6" width="28.5" height="28.5"/><rect class="cls-14" x="959.6" y="783.7" width="28.5" height="49.72"/><rect class="cls-14" x="986.1" y="808.6" width="28.5" height="28.5"/><rect class="cls-14" x="1261.9" y="785.6" width="28.5" height="49.71"/><rect class="cls-14" x="1235.4" y="810.4" width="28.5" height="28.52"/><path class="cls-17" d="M1039.7,623.3V594.9h28.4v28.4ZM1096.6,737V680.2H1125V651.8h28.4V594.9h-85.3V566.5h113.7v28.4h28.4v56.8h-28.4v28.4h-28.4V737Zm0,56.8V765.5h56.8v28.4Z" transform="translate(0)"/></svg>